<svg width="53" height="32" viewBox="0 0 53 32" fill="none" xmlns="http://www.w3.org/2000/svg">
<path d="M49.6162 18.0992C49.6155 18.1846 49.5734 18.2278 49.5727 18.3132L49.5723 18.3559C49.5716 18.4413 49.5295 18.4845 49.5288 18.5699C49.5281 18.6553 49.486 18.6986 49.4853 18.784C49.4846 18.8694 49.4424 18.9126 49.4417 18.998C49.4414 19.0407 49.3992 19.084 49.3989 19.1267C49.3561 19.2553 49.3129 19.4267 49.27 19.5553C49.2275 19.6413 49.2272 19.684 49.1847 19.7699C49.1422 19.8558 49.1419 19.8985 49.0994 19.9845C49.0994 19.9845 49.099 20.0272 49.0573 20.0277C49.0573 20.0277 49.0573 20.0277 49.0569 20.0704C49.0566 20.1131 49.0566 20.1131 49.0144 20.1564C48.9719 20.2423 48.9295 20.3283 48.887 20.4142C48.8445 20.5002 48.8441 20.5429 48.8017 20.6288C48.8017 20.6288 48.8016 20.6288 48.8013 20.6715L48.8009 20.7142C48.7581 20.8429 48.7156 20.9288 48.631 21.058C48.5889 21.1012 48.5882 21.1866 48.546 21.2299C48.5457 21.2726 48.5039 21.2731 48.5036 21.3158C48.4607 21.4445 48.3765 21.531 48.3336 21.6596C48.3333 21.7023 48.2911 21.7456 48.2911 21.7456C48.249 21.7888 48.2487 21.8315 48.2065 21.8748C48.0794 22.0899 47.9523 22.305 47.8252 22.5202C43.9338 28.3349 36.233 29.9728 30.6244 26.1182C30.1672 25.8254 29.7107 25.4471 29.296 25.0683L31.6229 21.5368C31.9954 21.9589 32.4522 22.2945 32.9091 22.6301C32.9505 22.6722 32.9923 22.6717 33.0337 22.7138C33.4077 22.9651 33.782 23.1737 34.1566 23.3395C34.6559 23.5892 35.1977 23.7529 35.7399 23.8738C35.7816 23.8733 35.8234 23.8727 35.8649 23.9149C36.407 24.0359 36.9916 24.0709 37.5348 24.0638C41.3789 24.0135 44.6601 21.2808 45.6092 17.6393C45.738 17.2106 45.7837 16.7404 45.8289 16.3129C45.8289 16.3129 45.8289 16.3129 45.8293 16.2702C46.1045 13.2779 44.8337 10.3059 42.2996 8.54589C40.887 7.5824 39.2195 7.13458 37.5482 7.15646C37.3393 7.15919 37.1303 7.16193 36.9211 7.20736C36.8793 7.20791 36.8793 7.20791 36.8375 7.20846C36.6704 7.21064 36.5447 7.25498 36.3775 7.25717C36.2518 7.30151 36.0847 7.3037 35.959 7.34804L35.9172 7.34859C35.4987 7.43946 35.0798 7.57302 34.7027 7.70605C31.8944 8.81018 29.701 11.3579 29.2165 14.3956L29.1719 14.7377L25.1202 14.62L25.1655 14.1924C25.3446 12.7385 25.7318 11.3672 26.3691 10.078C26.3695 10.0353 26.4116 9.99202 26.4116 9.99202C26.7943 9.17581 27.302 8.40066 27.8929 7.66711L27.9351 7.62386L28.1882 7.32168C30.2131 4.94695 32.9821 3.54447 35.9101 3.12189C36.4958 3.02883 37.1229 2.97792 37.7079 2.97027C43.7665 2.89095 48.7856 7.30822 49.7818 13.1871L49.7815 13.2298C49.8219 13.4 49.8208 13.5281 49.8612 13.6984C49.8605 13.7838 49.8598 13.8692 49.9012 13.9113C49.9002 14.0394 49.9413 14.1243 49.9402 14.2524C49.9392 14.3805 49.9799 14.508 49.9789 14.6361C49.9785 14.6788 49.9778 14.7642 49.9775 14.8069C49.9761 14.9777 49.9746 15.1485 49.9729 15.362L49.9725 15.4047C49.9725 15.4047 49.9725 15.4047 49.9722 15.4474C49.9241 16.2166 49.8328 17.157 49.6162 18.0992ZM28.3998 17.1814C28.2208 18.6354 27.8335 20.0067 27.1966 21.2532C27.1962 21.2959 27.1541 21.3391 27.1537 21.3818C26.771 22.1981 26.2633 22.9732 25.6724 23.7068L25.6303 23.75L25.3771 24.0522C23.3522 26.4269 20.5833 27.8294 17.6552 28.252C17.0696 28.345 16.4425 28.396 15.8575 28.4036C9.79882 28.4829 4.77975 24.0657 3.78349 18.1868L3.78384 18.1441C3.74346 17.9738 3.74486 17.8031 3.70413 17.6755C3.70483 17.5901 3.70553 17.5047 3.66409 17.4626C3.66515 17.3345 3.62406 17.2496 3.62511 17.1215C3.62616 16.9934 3.58543 16.8658 3.58648 16.7377C3.58683 16.6951 3.58753 16.6097 3.58788 16.567C3.58928 16.3962 3.59069 16.2254 3.59244 16.0119L3.59279 15.9692C3.59279 15.9692 3.59279 15.9692 3.59314 15.9265C3.60049 15.0298 3.69177 14.0893 3.90804 13.1899C3.90874 13.1045 3.95123 13.0185 3.95158 12.9758L3.95193 12.9331C3.95263 12.8477 3.99476 12.8045 3.99546 12.7191C3.99616 12.6337 4.0383 12.5904 4.039 12.505C4.0397 12.4196 4.08183 12.3764 4.08253 12.291C4.08288 12.2483 4.12502 12.205 4.12537 12.1623C4.1682 12.0337 4.21139 11.8624 4.25422 11.7337C4.29671 11.6478 4.29706 11.6051 4.33954 11.5191C4.38203 11.4332 4.38238 11.3905 4.42486 11.3045C4.42486 11.3045 4.42521 11.2618 4.467 11.2613C4.467 11.2613 4.467 11.2613 4.46735 11.2186C4.4677 11.1759 4.4677 11.1759 4.50948 11.1753C4.55196 11.0894 4.59445 11.0034 4.63693 10.9175C4.67942 10.8315 4.67977 10.7888 4.72225 10.7029C4.72225 10.7029 4.72225 10.7029 4.7226 10.6602C4.7226 10.6602 4.7226 10.6602 4.72295 10.6175C4.76579 10.4889 4.80827 10.4029 4.89289 10.2737C4.93502 10.2305 4.93572 10.1451 4.97786 10.1018C4.97821 10.0591 5.02034 10.0159 5.02034 10.0159C5.06283 9.92993 5.14745 9.80074 5.18993 9.7148C5.19028 9.6721 5.23241 9.62885 5.23241 9.62885C5.27455 9.58561 5.2749 9.54291 5.31703 9.49966C5.44414 9.28452 5.57124 9.06938 5.69834 8.85424C9.58975 3.03949 17.2906 1.40166 22.8992 5.25617C23.3564 5.54905 23.8128 5.92733 24.2275 6.30616L21.9007 9.8376C21.5281 9.41553 21.0713 9.07995 20.6145 8.74437C20.5731 8.70222 20.5313 8.70276 20.5313 8.70276C20.1573 8.45149 19.783 8.24292 19.4084 8.07704C18.9091 7.82741 18.3673 7.66372 17.8251 7.54273C17.7833 7.54328 17.7416 7.54383 17.7001 7.50167C17.158 7.38069 16.5734 7.34565 16.0302 7.35276C12.1861 7.40308 8.90484 10.1358 7.95583 13.7773C7.82697 14.2059 7.78134 14.6762 7.73605 15.1037C7.73605 15.1037 7.73605 15.1037 7.7357 15.1464C7.46048 18.1387 8.73126 21.1107 11.2654 22.8707C12.678 23.8342 14.3455 24.282 16.0168 24.2601C16.2257 24.2574 16.4347 24.2546 16.6439 24.2092L16.6857 24.2087C16.8528 24.2065 16.9785 24.1621 17.1457 24.1599C17.2714 24.1156 17.4385 24.1134 17.5642 24.0691L17.606 24.0685C18.0245 23.9777 18.4434 23.8441 18.8205 23.7111C21.6288 22.6069 23.8222 20.0592 24.3485 17.021L24.3931 16.6788L28.4447 16.7966L28.3998 17.1814ZM37.9824 0.0634207C33.5951 0.120854 29.6516 2.09375 26.869 5.16151C24.1361 2.16595 20.2242 0.295888 15.8369 0.353321C7.52192 0.46217 0.696185 7.4681 0.626481 15.9653C0.556776 24.4625 7.26902 31.2912 15.584 31.1824C19.9713 31.1249 23.9148 29.152 26.6974 26.0843C29.4302 29.0798 33.3422 30.9499 37.7295 30.8925C46.0445 30.7836 52.8702 23.7777 52.9399 15.2805C52.9678 6.78382 46.2974 -0.0454286 37.9824 0.0634207Z" fill="white"/>
</svg>
